<?xml version="1.0" standalone="no"?>
<!DOCTYPE svg PUBLIC "-//W3C//DTD SVG 20010904//EN"
 "http://www.w3.org/TR/2001/REC-SVG-20010904/DTD/svg10.dtd">
<svg version="1.0" xmlns="http://www.w3.org/2000/svg"
 width="571.000000pt" height="556.000000pt" viewBox="0 0 571.000000 556.000000"
 preserveAspectRatio="xMidYMid meet">

<g transform="translate(0.000000,556.000000) scale(0.100000,-0.100000)"
fill="#000000" stroke="none">
<path d="M2715 4554 c-265 -47 -594 -181 -717 -292 -66 -60 -115 -247 -125
-482 l-6 -136 -106 -39 c-141 -51 -371 -154 -487 -216 l-94 -51 0 40 c0 68 76
148 196 207 81 40 182 65 268 65 53 0 57 1 45 17 -46 54 -190 70 -299 32 -90
-31 -149 -67 -207 -126 -67 -68 -81 -113 -61 -195 8 -32 12 -61 9 -66 -3 -4
-46 -35 -96 -67 -122 -82 -247 -205 -280 -277 -51 -111 -66 -253 -45 -417 13
-96 65 -268 156 -509 77 -203 245 -604 251 -598 2 2 -14 50 -36 107 -161 420
-256 695 -293 847 -40 167 -25 390 34 506 45 89 222 238 417 353 213 126 691
334 691 301 0 -2 -9 -26 -20 -54 -56 -150 -94 -360 -94 -529 0 -146 22 -252
70 -340 53 -97 78 -111 57 -32 -36 137 -39 378 -7 550 42 222 150 435 289 573
227 224 567 339 907 306 254 -24 445 -102 606 -247 28 -26 52 -44 52 -40 0 4
-16 31 -35 60 -41 61 -152 168 -213 205 -23 14 -42 30 -42 36 0 12 236 66 395
90 142 22 362 23 445 1 148 -40 214 -91 302 -238 67 -112 78 -136 135 -299 35
-99 42 -115 37 -75 -28 223 -182 500 -339 607 -43 28 -103 58 -155 75 -76 25
-100 28 -220 28 -121 0 -206 -6 -280 -20 -14 -2 -78 -14 -142 -27 -65 -12
-120 -19 -124 -15 -3 3 4 20 16 38 47 65 217 114 298 86 l43 -15 -18 32 c-10
17 -39 41 -63 54 -53 27 -102 25 -196 -7 -103 -36 -145 -82 -154 -164 l-5 -52
-69 -18 c-68 -18 -70 -18 -150 2 -355 89 -755 18 -1011 -179 -52 -40 -178
-167 -230 -233 -18 -22 -40 -38 -55 -40 -25 -2 -25 -2 -22 73 4 112 21 215 49
305 20 64 34 88 68 121 146 141 599 306 846 308 74 1 77 0 148 -47 43 -28 86
-67 107 -97 41 -57 54 -65 27 -18 -28 50 -183 203 -230 227 -50 25 -118 26
-238 5z"/>
<path d="M4145 3915 c-5 -2 -22 -6 -37 -9 -37 -8 -98 -63 -114 -103 -26 -61
-16 -150 21 -186 25 -25 35 -20 29 13 -10 47 4 98 38 136 41 46 77 64 132 64
56 0 100 -35 121 -95 l14 -40 1 46 c0 49 -28 103 -73 140 -30 24 -104 43 -132
34z"/>
<path d="M2860 3669 c-127 -22 -264 -116 -354 -243 -58 -82 -87 -163 -91 -256
-2 -41 -1 -61 1 -45 3 17 25 71 49 121 74 153 175 245 338 307 76 29 91 31
207 31 148 0 214 -19 322 -90 113 -75 167 -181 188 -367 15 -128 -5 -314 -46
-430 -24 -68 -6 -54 30 24 59 128 83 318 57 455 -42 221 -232 424 -446 477
-82 21 -189 27 -255 16z"/>
<path d="M2101 3347 c-42 -101 -59 -171 -71 -291 -11 -114 0 -268 25 -343 8
-24 15 -52 15 -61 0 -23 65 -186 93 -232 122 -205 247 -317 440 -396 341 -139
737 -75 1006 163 192 169 314 470 298 731 -9 140 -62 331 -108 384 -18 22 -18
21 2 -27 88 -213 70 -483 -50 -730 -58 -119 -117 -198 -210 -281 -156 -139
-295 -194 -551 -219 -57 -6 -220 5 -330 21 -52 8 -227 95 -286 141 -91 73
-186 219 -232 359 -75 223 -83 516 -22 771 10 43 17 79 15 81 -1 2 -17 -30
-34 -71z"/>
<path d="M2790 3179 c-35 -14 -78 -57 -103 -104 -32 -60 -31 -174 4 -240 46
-91 160 -139 244 -104 30 12 30 12 -29 20 -69 10 -113 34 -142 77 -84 125 22
292 185 292 61 0 64 12 11 48 -36 24 -122 30 -170 11z"/>
<path d="M1258 2884 c17 -31 -2 -88 -40 -119 -28 -24 -38 -26 -78 -21 -25 3
-46 11 -48 16 -2 6 -8 10 -14 10 -6 0 -5 -6 3 -16 39 -47 131 -59 167 -21 44
47 52 128 15 158 -15 13 -15 12 -5 -7z"/>
<path d="M3677 2790 c-3 -8 -11 -33 -18 -55 -46 -153 -168 -315 -299 -397
-126 -80 -253 -113 -425 -111 -204 1 -348 55 -488 181 l-72 64 81 -79 c62 -62
100 -90 165 -122 130 -63 190 -76 359 -75 130 1 154 4 230 28 127 41 204 89
296 180 90 90 142 182 170 302 14 63 15 120 1 84z"/>
<path d="M1369 2653 c-41 -24 -92 -49 -114 -56 -46 -13 -201 -16 -257 -4 -48
10 -49 -4 -5 -48 39 -39 103 -51 226 -42 87 6 146 26 214 74 52 37 86 42 109
16 30 -35 80 -134 113 -225 44 -121 45 -101 1 29 -61 181 -124 278 -192 295
-15 4 -46 -9 -95 -39z"/>
<path d="M1745 1745 c-130 -47 -150 -233 -34 -304 160 -97 339 87 235 241 -42
63 -128 90 -201 63z m139 -84 c24 -24 29 -38 29 -76 0 -39 -5 -52 -32 -78 -26
-26 -39 -32 -76 -32 -37 0 -50 6 -76 32 -76 75 -15 202 91 188 20 -3 46 -16
64 -34z"/>
<path d="M3995 1746 c-42 -18 -57 -40 -57 -81 0 -47 15 -63 88 -95 70 -32 86
-56 54 -82 -31 -25 -47 -23 -80 10 -25 25 -32 27 -54 18 l-26 -11 20 -33 c71
-115 260 -43 209 80 -10 24 -28 38 -78 61 -74 33 -84 43 -70 69 12 22 56 24
80 2 19 -18 59 -11 59 10 0 43 -92 76 -145 52z"/>
<path d="M1510 1632 c0 -90 -4 -123 -16 -140 -19 -28 -41 -28 -71 0 -20 18
-26 20 -49 9 -24 -11 -25 -13 -12 -34 8 -12 32 -30 52 -41 33 -16 43 -17 77
-7 66 20 79 52 79 204 l0 127 -30 0 -30 0 0 -118z"/>
<path d="M2050 1585 l0 -165 30 0 29 0 3 117 3 118 70 -118 c66 -111 71 -117
102 -117 l33 0 0 165 0 165 -30 0 -30 0 0 -112 0 -113 -67 113 c-67 111 -68
112 -105 112 l-38 0 0 -165z"/>
<path d="M2540 1585 l0 -165 100 0 100 0 0 30 0 30 -70 0 -70 0 0 135 0 135
-30 0 -30 0 0 -165z"/>
<path d="M2810 1585 l0 -165 100 0 100 0 0 30 0 30 -70 0 -70 0 0 40 0 40 65
0 c63 0 65 1 65 25 0 24 -2 25 -65 25 l-65 0 0 40 0 40 70 0 70 0 0 30 0 30
-100 0 -100 0 0 -165z"/>
<path d="M3072 1738 c3 -7 29 -82 59 -166 l54 -153 34 3 34 3 58 160 c32 88
59 161 59 163 0 1 -15 2 -33 2 -35 0 -37 -4 -113 -230 -3 -7 -24 41 -47 108
l-41 122 -34 0 c-23 0 -33 -4 -30 -12z"/>
<path d="M3430 1585 l0 -165 30 0 30 0 0 165 0 165 -30 0 -30 0 0 -165z"/>
<path d="M3590 1585 l0 -165 31 0 32 0 -5 115 c-3 69 -1 112 5 106 5 -5 37
-55 71 -112 56 -94 65 -104 94 -107 l32 -3 0 165 0 166 -31 0 -31 0 4 -109 c1
-60 0 -107 -3 -105 -4 2 -35 51 -69 109 -59 100 -64 105 -96 105 l-34 0 0
-165z"/>
<path d="M4230 1585 l0 -165 30 0 c29 0 30 2 30 44 0 32 6 52 23 71 l22 27 49
-71 c46 -68 50 -71 88 -71 l39 0 -42 58 c-22 31 -52 74 -66 94 l-25 37 41 49
c22 27 47 55 56 62 24 20 18 30 -19 30 -30 0 -41 -8 -93 -69 -32 -38 -61 -70
-65 -70 -5 -1 -8 31 -8 69 l0 70 -30 0 -30 0 0 -165z"/>
<path d="M4552 1728 c99 -152 98 -151 98 -232 l0 -76 30 0 30 0 0 76 c0 81 -1
80 98 232 14 21 13 22 -25 22 -37 0 -40 -3 -68 -54 -16 -30 -33 -52 -37 -50
-4 3 -20 27 -35 54 -26 46 -31 50 -67 50 -37 0 -38 -1 -24 -22z"/>
</g>
</svg>
