<?xml version="1.0" standalone="no"?>
<!DOCTYPE svg PUBLIC "-//W3C//DTD SVG 20010904//EN"
 "http://www.w3.org/TR/2001/REC-SVG-20010904/DTD/svg10.dtd">
<svg version="1.0" xmlns="http://www.w3.org/2000/svg"
 width="500.000000pt" height="500.000000pt" viewBox="0 0 500.000000 500.000000"
 preserveAspectRatio="xMidYMid meet">

<g transform="translate(0.000000,500.000000) scale(0.100000,-0.100000)"
fill="#000000" stroke="none">
<path d="M1352 4527 c-28 -30 -28 -68 1 -94 18 -17 41 -23 117 -28 241 -18
369 -86 446 -237 62 -121 58 -20 64 -1578 3 -784 2 -1460 -3 -1503 -14 -144
-99 -309 -204 -396 -46 -38 -153 -95 -211 -112 -80 -23 -101 -89 -35 -105 37
-10 205 3 291 21 171 36 358 113 481 198 79 54 179 157 229 236 58 89 74 124
110 246 l27 90 5 1380 c5 1269 7 1385 23 1438 50 168 148 260 323 303 47 11
116 17 215 18 129 1 149 3 168 20 29 26 28 76 -2 104 l-23 22 -1000 0 -1001 0
-21 -23z m1123 -247 c14 -16 16 -24 7 -47 -6 -16 -20 -65 -32 -110 -20 -80
-20 -107 -20 -1412 0 -1376 0 -1365 -42 -1504 -26 -85 -114 -222 -143 -222
-18 0 -20 7 -20 65 0 36 -3 727 -7 1535 -6 1461 -7 1471 -28 1555 -12 46 -25
91 -30 100 -6 11 -4 24 6 38 14 21 23 22 153 22 125 0 140 -2 156 -20z"/>
<path d="M4240 2842 c-20 -21 -39 -62 -65 -146 -100 -317 -234 -561 -409 -744
-104 -108 -190 -171 -317 -231 -139 -65 -248 -91 -387 -91 -101 0 -110 -2
-130 -23 -28 -30 -28 -68 1 -95 l23 -22 680 0 681 0 22 24 c13 13 27 41 32 63
13 56 11 1218 -2 1247 -23 51 -87 59 -129 18z"/>
<path d="M947 1640 c-108 -19 -210 -98 -263 -205 -26 -54 -29 -70 -29 -160 0
-91 3 -106 32 -167 37 -78 92 -137 165 -175 46 -23 68 -28 160 -31 98 -4 111
-2 162 21 74 34 159 116 193 185 39 79 45 212 13 295 -44 118 -140 203 -260
231 -71 17 -100 18 -173 6z"/>
</g>
</svg>
